<?xml version="1.0" encoding="UTF-8" standalone="no"?>
<!DOCTYPE svg PUBLIC "-//W3C//DTD SVG 1.1//EN" "http://www.w3.org/Graphics/SVG/1.1/DTD/svg11.dtd">
<svg version="1.1" xmlns="http://www.w3.org/2000/svg" xmlns:xlink="http://www.w3.org/1999/xlink" preserveAspectRatio="xMidYMid meet" viewBox="0.08476097822796191 -0.14372605588923193 131.83595558388413 157.32630178805067" width="128" height="128"><defs><path d="M66 128.69C31.27 128.69 3.08 100.5 3.08 65.77C3.08 31.05 31.27 2.86 66 2.86C100.72 2.86 128.92 31.05 128.92 65.77C128.92 100.5 100.72 128.69 66 128.69Z" id="chxCy3DF8"></path><path d="M66 128.69C31.27 128.69 3.08 100.5 3.08 65.77C3.08 31.05 31.27 2.86 66 2.86C100.72 2.86 128.92 31.05 128.92 65.77C128.92 100.5 100.72 128.69 66 128.69Z" id="f2gzZkhjhT"></path><path d="M81.8 83.4L50.2 83.4L66 107.89L81.8 83.4Z" id="a1ViBtTpnk"></path><path d="M81.8 83.4L50.2 83.4L66 107.89L81.8 83.4Z" id="a1bOLgv23g"></path><path d="M46.52 153.18L46.52 140.54" id="c2Y29m99iF"></path><path d="M87.6 125.27L87.6 153.18" id="eaq5glJdk"></path><path d="M107.32 77.35C107.32 77.35 107.32 77.35 107.32 77.35C98.02 77.35 89.33 72.74 84.11 65.06C80.48 59.73 82.28 62.36 79.72 58.61C73.19 49 58.99 49.12 52.61 58.83C50.18 62.53 51.54 60.45 47.93 65.96C43.27 73.07 35.34 77.35 26.84 77.35C26.84 77.35 26.84 77.35 26.84 77.35" id="b8yystaM8Z"></path></defs><g><g><use xlink:href="#chxCy3DF8" opacity="1" fill="#adf2ca" fill-opacity="0"></use><g><use xlink:href="#chxCy3DF8" opacity="1" fill-opacity="0" stroke="#000000" stroke-width="1" stroke-opacity="0"></use></g></g><g><use xlink:href="#f2gzZkhjhT" opacity="1" fill="#000000" fill-opacity="0"></use><g><use xlink:href="#f2gzZkhjhT" opacity="1" fill-opacity="0" stroke="#000000" stroke-width="6" stroke-opacity="1"></use></g></g><g><use xlink:href="#a1ViBtTpnk" opacity="1" fill="#71c2ff" fill-opacity="1"></use><g><use xlink:href="#a1ViBtTpnk" opacity="1" fill-opacity="0" stroke="#000000" stroke-width="1" stroke-opacity="0"></use></g></g><g><use xlink:href="#a1bOLgv23g" opacity="1" fill="#000000" fill-opacity="0"></use><g><use xlink:href="#a1bOLgv23g" opacity="1" fill-opacity="0" stroke="#233515" stroke-width="0" stroke-opacity="1"></use></g></g><g><use xlink:href="#c2Y29m99iF" opacity="1" fill="#000000" fill-opacity="0"></use><g><use xlink:href="#c2Y29m99iF" opacity="1" fill-opacity="0" stroke="#000000" stroke-width="8" stroke-opacity="1"></use></g></g><g><use xlink:href="#eaq5glJdk" opacity="1" fill="#000000" fill-opacity="0"></use><g><use xlink:href="#eaq5glJdk" opacity="1" fill-opacity="0" stroke="#000000" stroke-width="7" stroke-opacity="1"></use></g></g><g><use xlink:href="#b8yystaM8Z" opacity="1" fill="#000000" fill-opacity="0"></use><g><use xlink:href="#b8yystaM8Z" opacity="1" fill-opacity="0" stroke="#000000" stroke-width="8" stroke-opacity="1"></use></g></g></g></svg>